<?xml version="1.0" encoding="UTF-8"?><svg id="Layer_1" xmlns="http://www.w3.org/2000/svg" viewBox="0 0 269.769 80.5743"><defs><style>.cls-1{fill:#1d1d1b;}.cls-2{fill:#e94e1b;}.cls-3{fill:#fff;}.cls-4{fill:#30a2dc;}</style></defs><path class="cls-2" d="M189.1118,57.8028c8.6582-6.1973,24.9727-17.3164,24.9727-24.6992,0-3.6445-2.5518-5.7422-7.2002-5.7422-4.1016,0-8.2031,2.2793-10.6641,4.7402l-5.9238-7.5645c4.0107-3.8281,10.7549-6.8359,18.4102-6.8359,10.7549,0,18.3193,4.0098,18.3193,13.0332,0,9.5703-10.6631,17.499-18.8662,23.2402.5469-.0908,3.5547-.3643,5.833-.3643h16.7705v9.6611h-41.6514v-5.4688Z"/><path class="cls-2" d="M234.0425,79.4942l2.2783-9.6602c.9111.2734,3.1904.9111,6.5625.9111,7.6553,0,13.9443-3.7373,13.9443-11.21,0-7.9297-5.9238-10.7549-13.8535-10.7549-2.3701,0-4.8301.1826-6.3799.5469l1.9141-30.4414h29.9854v9.2959h-19.0488l-.7285,11.2109c13.3975.2734,21.0527,8.0205,21.0527,19.5039,0,12.9424-10.207,21.5098-26.9775,21.5098-4.4658,0-7.4736-.6387-8.749-.9121Z"/><path class="cls-4" d="M1.2764,79.7676l1.8223-9.752c.9121.3652,3.8281.8203,6.9268.8203,8.1123,0,14.2188-3.3721,14.2188-9.9336,0-6.7451-6.3799-9.1152-15.4941-9.1152v-8.749c6.2881-.0908,13.8535-3.9189,13.8535-9.752,0-3.7373-2.4609-5.833-7.292-5.833-4.0098,0-7.1084,1.7324-9.6602,4.0098L0,23.8076c3.6455-3.0986,9.3877-6.0146,17.7725-6.0146,11.3018,0,17.4082,5.832,17.4082,13.5791s-6.7441,12.7598-12.1221,14.2178v.0918c6.9268.8203,14.127,6.0156,14.127,15.0381,0,12.1221-10.9365,19.6865-26.4307,19.6865-5.0127,0-8.0205-.3652-9.4785-.6387Z"/><path class="cls-4" d="M83.7274,48.4055l-16.1143-30.5522c-.6211-.0358-1.2513-.0603-1.9011-.0603-16.5879,0-23.9697,12.3027-23.9697,23.4219s7.1992,23.1504,23.7871,23.1504c14.1412,0,21.5792-9.1077,23.4167-18.7122l-5.2187,2.7525ZM65.7119,54.7041c-7.2002,0-11.0283-5.377-11.0283-13.8525s3.7373-13.3984,10.8457-13.3984,10.9375,5.2861,10.9375,13.7617-3.7373,13.4893-10.7549,13.4893Z"/><path class="cls-4" d="M41.4004,76.9102v-5.9531h-1.8721v-2.376h1.8721v-3.3838h3.168v3.3838h2.7363v2.376h-2.7363v5.3291c0,1.1523.2881,1.6562,1.1768,1.6562.6953,0,1.2959-.2881,1.5361-.4326l.7441,2.377c-.4805.2637-1.4648.6719-2.9287.6719-2.7598,0-3.6963-1.416-3.6963-3.6484Z"/><path class="cls-4" d="M49.6318,62.9893h3.1924v7.0078c.6006-.6475,1.7285-1.7041,3.6484-1.7041,2.5684,0,3.5049,1.6328,3.5049,3.793v8.1846h-3.1924v-7.5371c0-1.1758-.4082-1.7764-1.5361-1.7764-1.248,0-2.1846,1.1523-2.4248,1.4648v7.8486h-3.1924v-17.2812Z"/><polygon class="cls-3" points="78.422 55.9561 43.9102 0 65.9991 0 80.6339 25.6172 83.1681 0 103.0626 0 95.1446 55.9561 78.422 55.9561"/><polygon class="cls-3" points="147.6817 55.9561 146.003 41.7075 141.5841 55.9561 124.2403 55.9561 119.9767 42.207 118.2628 55.9561 99.6993 55.9561 107.4288 0 125.1544 0 133.5899 26.792 142.3624 0 160.0567 0 167.7032 55.9561 147.6817 55.9561"/><polygon class="cls-3" points="172.0811 55.9561 164.4405 0 185.2774 0 187.6075 25.5981 202.4337 0 223.6017 0 188.8126 55.9561 172.0811 55.9561"/><path class="cls-3" d="M51.0769,4h12.6011l15.5895,27.29c2.072,3.6724,3.8392,7.2729,4.2047,7.9209h.144c-.0055-.6479.1549-4.3203.4755-7.9209l2.7006-27.29h11.665l-6.7864,47.9561h-11.0166L51.0769,4Z"/><path class="cls-3" d="M110.9143,4h11.3052l9.001,28.5864c1.0078,3.312,1.9438,7.2007,2.2319,8.0645h.144c.2881-.8638,1.2964-4.7524,2.3042-8.0645l9.3608-28.5864h11.3052l6.5522,47.9561h-11.8809l-2.6641-22.6099c-.4321-3.5283-.7925-6.3364-.7925-7.0566h-.1436c-.2163.792-.9365,3.6724-1.9443,6.9126l-7.0566,22.7539h-11.4492l-7.0566-22.7539c-.8638-2.9521-1.6558-6.1924-1.8721-6.9126h-.144c0,.792-.2158,3.9604-.5757,7.1284l-2.8086,22.5381h-10.4409l6.6245-47.9561Z"/><path class="cls-3" d="M169.0237,4h12.6011l2.4849,27.29c.3085,3.6724.3468,7.2729.4011,7.9209h.144c.3056-.6479,2.2295-4.3203,4.2791-7.9209l15.8051-27.29h11.665l-29.8147,47.9561h-11.0166l-6.5491-47.9561Z"/><path class="cls-1" d="M51.0769,4h12.6011l15.5895,27.29c2.072,3.6724,3.8392,7.2729,4.2047,7.9209h.144c-.0055-.6479.1549-4.3203.4755-7.9209l2.7006-27.29h11.665l-6.7864,47.9561h-11.0166L51.0769,4Z"/><path class="cls-1" d="M110.9143,4h11.3052l9.001,28.5864c1.0078,3.312,1.9438,7.2007,2.2319,8.0645h.144c.2881-.8638,1.2964-4.7524,2.3042-8.0645l9.3608-28.5864h11.3052l6.5522,47.9561h-11.8809l-2.6641-22.6099c-.4321-3.5283-.7925-6.3364-.7925-7.0566h-.1436c-.2163.792-.9365,3.6724-1.9443,6.9126l-7.0566,22.7539h-11.4492l-7.0566-22.7539c-.8638-2.9521-1.6558-6.1924-1.8721-6.9126h-.144c0,.792-.2158,3.9604-.5757,7.1284l-2.8086,22.5381h-10.4409l6.6245-47.9561Z"/><path class="cls-1" d="M169.0237,4h12.6011l2.4849,27.29c.3085,3.6724.3468,7.2729.4011,7.9209h.144c.3056-.6479,2.2295-4.3203,4.2791-7.9209l15.8051-27.29h11.665l-29.8147,47.9561h-11.0166l-6.5491-47.9561Z"/><path class="cls-1" d="M84.5289,58.0118h1.5859l3.2805,5.5381c.3906.6768.6975,1.2744.8198,1.4697h.0264c.0174-.208.0481-.8066.1285-1.4697l.6589-5.5381h1.4688l-1.2247,8.6582h-1.4043l-5.3397-8.6582Z"/><path class="cls-1" d="M94.3291,58.5186c0-.4805.3896-.8838.8975-.8838.5195,0,.9092.4033.9092.8838,0,.4814-.3896.8848-.9092.8848-.5078,0-.8975-.4033-.8975-.8848ZM94.5371,60.378h1.3906v6.292h-1.3906v-6.292Z"/><path class="cls-1" d="M97.3965,66.2285l.5068-.9883c.2344.1689.832.5195,1.5479.5195.7148,0,1.1436-.2598,1.1436-.7275,0-.4941-.585-.6631-1.4951-1.0791-.9229-.416-1.5469-.8838-1.5469-1.8848,0-1.0928.8447-1.8467,2.1846-1.8467,1.0654,0,1.7031.3906,1.9492.5459l-.5459.9629c-.2334-.1562-.7148-.4297-1.3643-.4297-.6377,0-.9492.2598-.9492.6895,0,.5068.5459.6758,1.248.9619,1.0137.416,1.833.8711,1.833,1.9365,0,1.2354-.9229,1.9502-2.3926,1.9502-1.0264,0-1.7285-.3379-2.1191-.6104Z"/><path class="cls-1" d="M103.1943,58.5186c0-.4805.3896-.8838.8975-.8838.5195,0,.9092.4033.9092.8838,0,.4814-.3896.8848-.9092.8848-.5078,0-.8975-.4033-.8975-.8848ZM103.4023,60.378h1.3906v6.292h-1.3906v-6.292Z"/><path class="cls-1" d="M106.2891,63.5371c0-1.5469.8447-3.3154,3.0156-3.3154,2.1582,0,3.1074,1.7295,3.1074,3.2764,0,1.5342-.9229,3.3281-3.0811,3.3281-2.1709,0-3.042-1.7422-3.042-3.2891ZM110.9434,63.5371c0-1.248-.5332-2.2363-1.6641-2.2363-1.1182,0-1.5342.9492-1.5342,2.1973s.4805,2.2363,1.5986,2.2363c1.1318,0,1.5996-.9365,1.5996-2.1973Z"/><path class="cls-1" d="M113.79,60.378h1.3643v.8447c.5068-.6104,1.1836-1.001,2.0156-1.001,1.3516,0,1.8721.8848,1.8721,2.002v4.4463h-1.3779v-4.1602c0-.7021-.2471-1.1045-.9619-1.1045-.625,0-1.1836.4805-1.5215.9492v4.3154h-1.3906v-6.292Z"/><path class="cls-1" d="M121.3037,67.125c0-.5977-.6758-.6494-.6758-1.4043,0-.4932.3896-.8574.9092-.8574.5723,0,1.0664.4551,1.0664,1.2354,0,.8057-.3896,1.7021-.9229,2.3916h-.9102c.2988-.4424.5332-.9619.5332-1.3652Z"/><path class="cls-1" d="M127.751,58.0118h1.417l1.9238,5.5908c.2217.6621.3779,1.1826.4814,1.5332h.0264c.1035-.3379.2598-.8711.4932-1.5332l1.9502-5.5908h1.417l1.1836,8.6582h-1.4951l-.6367-5.0049c-.0781-.624-.1299-1.0273-.1436-1.2354h-.0254c-.0654.2344-.1826.6504-.377,1.2227l-1.7295,5.0176h-1.4297l-1.7559-5.0176c-.1816-.5596-.3115-.9883-.3896-1.2227h-.0264c-.0127.2471-.0518.6768-.1162,1.2617l-.6113,4.9785h-1.3389l1.1826-8.6582Z"/><path class="cls-1" d="M137.6572,63.5371c0-1.5469.8447-3.3154,3.0156-3.3154,2.1582,0,3.1074,1.7295,3.1074,3.2764,0,1.5342-.9229,3.3281-3.0811,3.3281-2.1709,0-3.042-1.7422-3.042-3.2891ZM142.3115,63.5371c0-1.248-.5332-2.2363-1.6641-2.2363-1.1182,0-1.5342.9492-1.5342,2.1973s.4814,2.2363,1.5986,2.2363c1.1318,0,1.5996-.9365,1.5996-2.1973Z"/><path class="cls-1" d="M144.6777,63.5371c0-2.002,1.1963-3.3154,2.7949-3.3154.6631,0,1.1836.1953,1.5215.4941v-3.4062h1.3779v7.7871c0,.624.0908,1.1963.1816,1.5732h-1.3652c-.0518-.1426-.1162-.4805-.1299-.7021-.4287.5205-1.0137.8584-1.7939.8584-1.5469,0-2.5869-1.1826-2.5869-3.2891ZM148.9941,64.9414v-3.1201c-.3252-.2988-.7158-.4814-1.2744-.4814-1.0137,0-1.5732.8711-1.5732,2.1846,0,1.2998.4551,2.1582,1.4951,2.1582.5332,0,1.04-.3125,1.3525-.7412Z"/><path class="cls-1" d="M151.7236,63.4854c0-1.9248,1.2607-3.2637,2.9766-3.2637,1.6904,0,2.627,1.1182,2.627,2.9648,0,.1689-.0137.3633-.0264.5459h-4.1084c.0654,1.1182.5596,2.0146,1.7812,2.0146.8584,0,1.3906-.3379,1.6768-.4941l.4814.9492c-.3643.2207-1.04.624-2.2617.624-2.0547,0-3.1465-1.4043-3.1465-3.3408ZM155.9619,62.7442c-.0264-.793-.3643-1.4688-1.2871-1.4688-.8447,0-1.3135.585-1.4688,1.4688h2.7559Z"/><path class="cls-1" d="M158.8477,57.3096h1.3779v9.3604h-1.3779v-9.3604Z"/><path class="cls-1" d="M162.0586,58.5186c0-.4805.3896-.8838.8975-.8838.52,0,.9097.4033.9097.8838,0,.4814-.3896.8848-.9097.8848-.5078,0-.8975-.4033-.8975-.8848ZM162.2666,60.378h1.3911v6.292h-1.3911v-6.292Z"/><path class="cls-1" d="M165.6343,60.378h1.3643v.8447c.5068-.6104,1.1836-1.001,2.0156-1.001,1.3516,0,1.8721.8848,1.8721,2.002v4.4463h-1.3779v-4.1602c0-.7021-.2471-1.1045-.9619-1.1045-.625,0-1.1836.4805-1.5215.9492v4.3154h-1.3906v-6.292Z"/><path class="cls-1" d="M172.2642,68.0479c0-.7012.4414-1.2217,1.0654-1.5723-.3506-.1953-.5586-.4814-.5586-.9492,0-.5068.3115-.8711.6758-1.0918-.7148-.3906-1.1182-1.0791-1.1182-1.9111,0-1.3398,1.0146-2.3018,2.6787-2.3018.377,0,.7402.0527,1.0527.1562h2.1836v.9619h-.9102c.2217.3379.3516.7412.3516,1.1836,0,1.3252-.9756,2.2881-2.6396,2.2881-.2471,0-.4932-.0264-.7148-.0654-.2207.1172-.3252.2471-.3252.4287,0,.3379.377.4424,1.1055.4688,1.3389.0771,3.1074.0391,3.1074,1.9365,0,1.3135-1.4307,2.1846-3.3027,2.1846-1.5859,0-2.6514-.5205-2.6514-1.7168ZM176.8267,67.6973c0-.8057-.7275-.8057-1.5596-.8584-.3379-.0254-.7021-.0391-1.0146-.0908-.4414.2861-.6631.6367-.6631,1.0791,0,.5459.416.9619,1.4043.9619,1.1309,0,1.833-.4551,1.833-1.0918ZM176.3198,62.5235c0-.8066-.4941-1.3262-1.3125-1.3262-.832,0-1.3135.5195-1.3135,1.3262,0,.793.4814,1.3125,1.3135,1.3125.8184,0,1.3125-.5195,1.3125-1.3125Z"/><path class="cls-1" d="M179.7515,67.125c0-.5977-.6758-.6494-.6758-1.4043,0-.4932.3896-.8574.9092-.8574.5723,0,1.0664.4551,1.0664,1.2354,0,.8057-.3896,1.7021-.9229,2.3916h-.9102c.2988-.4424.5332-.9619.5332-1.3652Z"/><path class="cls-1" d="M130.2216,78.8184c0-1.6377,1.7549-2.1973,3.3535-2.1973h.2471v-.4551c0-.7539-.3242-1.0781-1.1309-1.0781-.6367,0-1.1572.2461-1.6123.6367l-.6494-.8838c.5586-.5068,1.3516-.8838,2.4053-.8838,1.5596,0,2.3662.6621,2.3662,2.2227v2.5605c0,.7422.0771,1.3135.1553,1.6641h-1.3652c-.0381-.168-.0908-.5195-.1035-.7148-.3643.4688-1.0137.8711-1.8203.8711-1.0527,0-1.8457-.6504-1.8457-1.7422ZM133.8222,78.793v-1.2617h-.2471c-1.1562,0-1.9756.3252-1.9756,1.209,0,.5469.4424.7539.832.7539.6113,0,1.0664-.2988,1.3906-.7012Z"/><path class="cls-1" d="M137.0204,74.1123h1.3652v.8447c.5078-.6104,1.1836-1,2.0156-1,1.3516,0,1.8721.8838,1.8721,2.002v4.4453h-1.3779v-4.1602c0-.7012-.2471-1.1045-.9629-1.1045-.623,0-1.1826.4814-1.5205.9492v4.3154h-1.3916v-6.292Z"/><path class="cls-1" d="M143.6249,77.2715c0-2.002,1.1963-3.3145,2.7949-3.3145.6631,0,1.1836.1943,1.5215.4941v-3.4062h1.3779v7.7871c0,.623.0908,1.1953.1816,1.5723h-1.3652c-.0518-.1426-.1162-.4805-.1299-.7012-.4287.5195-1.0137.8574-1.7939.8574-1.5469,0-2.5869-1.1826-2.5869-3.2891ZM147.9413,78.6758v-3.1201c-.3252-.2988-.7158-.4814-1.2744-.4814-1.0137,0-1.5732.8711-1.5732,2.1846,0,1.2998.4551,2.1582,1.4951,2.1582.5332,0,1.04-.3125,1.3525-.7412Z"/><path class="cls-1" d="M154.055,71.7461h1.5859l2.9786,5.5391c.3535.6758.6279,1.2734.7404,1.4688h.0254c.0288-.208.0921-.8066.2088-1.4688l.9608-5.5391h1.4688l-1.697,8.6582h-1.4043l-4.8675-8.6582Z"/><path class="cls-1" d="M163.6191,72.2539c0-.4814.3896-.8848.8975-.8848.5195,0,.9092.4033.9092.8848,0,.4805-.3896.8838-.9092.8838-.5078,0-.8975-.4033-.8975-.8838ZM163.8271,74.1123h1.3906v6.292h-1.3906v-6.292Z"/><path class="cls-1" d="M166.6865,79.9629l.5078-.9883c.2334.1689.832.5195,1.5469.5195s1.1436-.2598,1.1436-.7275c0-.4941-.585-.6631-1.4951-1.0791-.9229-.416-1.5469-.8838-1.5469-1.8848,0-1.0918.8447-1.8457,2.1846-1.8457,1.0654,0,1.7021.3896,1.9492.5449l-.5459.9629c-.2334-.1562-.7148-.4297-1.3652-.4297-.6367,0-.9482.2598-.9482.6895,0,.5068.5459.6758,1.248.9619,1.0137.416,1.833.8711,1.833,1.9365,0,1.2363-.9229,1.9512-2.3926,1.9512-1.0264,0-1.7285-.3379-2.1191-.6113Z"/><path class="cls-1" d="M172.5371,78.5586v-4.4463h1.3779v4.1602c0,.7021.2471,1.1055.9629,1.1055.793,0,1.3906-.7803,1.5205-.9492v-4.3164h1.3779v4.6934c0,.6885.0781,1.2744.1562,1.5986h-1.3779c-.0391-.1553-.1045-.5977-.1172-.8838-.3115.416-.9619,1.04-2.0283,1.04-1.3652,0-1.8721-.8838-1.8721-2.002Z"/><path class="cls-1" d="M179.2187,78.8184c0-1.6377,1.7549-2.1973,3.3545-2.1973h.2461v-.4551c0-.7539-.3242-1.0781-1.1309-1.0781-.6367,0-1.1572.2461-1.6113.6367l-.6504-.8838c.5586-.5068,1.3516-.8838,2.4053-.8838,1.5596,0,2.3662.6621,2.3662,2.2227v2.5605c0,.7422.0771,1.3135.1553,1.6641h-1.3643c-.0391-.168-.0918-.5195-.1045-.7148-.3643.4688-1.0137.8711-1.8203.8711-1.0527,0-1.8457-.6504-1.8457-1.7422ZM182.8193,78.793v-1.2617h-.2461c-1.1572,0-1.9766.3252-1.9766,1.209,0,.5469.4424.7539.832.7539.6113,0,1.0664-.2988,1.3906-.7012Z"/><path class="cls-1" d="M186.0829,71.045h1.3779v9.3594h-1.3779v-9.3594Z"/><path class="cls-1" d="M189.2939,72.2539c0-.4814.3896-.8848.8975-.8848.5195,0,.9092.4033.9092.8848,0,.4805-.3896.8838-.9092.8838-.5078,0-.8975-.4033-.8975-.8838ZM189.5019,74.1123h1.3906v6.292h-1.3906v-6.292Z"/><path class="cls-1" d="M192.4521,79.6114l2.9512-4.4326h-2.7949v-1.0664h4.4727v.832l-2.9385,4.3945h2.9775v1.0654h-4.668v-.793Z"/><path class="cls-1" d="M198.1728,78.8184c0-1.6377,1.7549-2.1973,3.3535-2.1973h.2471v-.4551c0-.7539-.3242-1.0781-1.1309-1.0781-.6367,0-1.1572.2461-1.6123.6367l-.6494-.8838c.5586-.5068,1.3516-.8838,2.4053-.8838,1.5596,0,2.3662.6621,2.3662,2.2227v2.5605c0,.7422.0771,1.3135.1553,1.6641h-1.3652c-.0381-.168-.0908-.5195-.1035-.7148-.3643.4688-1.0137.8711-1.8203.8711-1.0527,0-1.8457-.6504-1.8457-1.7422ZM201.7734,78.793v-1.2617h-.2471c-1.1562,0-1.9756.3252-1.9756,1.209,0,.5469.4424.7539.832.7539.6113,0,1.0664-.2988,1.3906-.7012Z"/><path class="cls-1" d="M205.2968,78.7276v-3.5615h-1.0137v-1.0537h1.0137v-1.8066h1.3779v1.8066h1.5215v1.0537h-1.5215v3.3408c0,.624.1689.9102.6768.9102.377,0,.7148-.1826.832-.2607l.3896,1.041c-.2344.1289-.7285.3633-1.4688.3633-1.2871,0-1.8076-.7012-1.8076-1.833Z"/><path class="cls-1" d="M209.6259,72.2539c0-.4814.3896-.8848.8975-.8848.5195,0,.9092.4033.9092.8848,0,.4805-.3896.8838-.9092.8838-.5078,0-.8975-.4033-.8975-.8838ZM209.8339,74.1123h1.3906v6.292h-1.3906v-6.292Z"/><path class="cls-1" d="M212.7197,77.2715c0-1.5469.8447-3.3145,3.0156-3.3145,2.1582,0,3.1074,1.7285,3.1074,3.2754,0,1.5342-.9229,3.3281-3.0811,3.3281-2.1709,0-3.042-1.7422-3.042-3.2891ZM217.374,77.2715c0-1.248-.5332-2.2363-1.6641-2.2363-1.1182,0-1.5342.9492-1.5342,2.1973s.4814,2.2363,1.5986,2.2363c1.1318,0,1.5996-.9355,1.5996-2.1973Z"/><path class="cls-1" d="M220.2192,74.1123h1.3652v.8447c.5078-.6104,1.1836-1,2.0156-1,1.3516,0,1.8721.8838,1.8721,2.002v4.4453h-1.3779v-4.1602c0-.7012-.2471-1.1045-.9629-1.1045-.623,0-1.1826.4814-1.5205.9492v4.3154h-1.3916v-6.292Z"/></svg>